A Manhattan ambulance paramedic, overworked and haunted by visions of his failures, fights to keep a tenuous grip on his clarity.





I don't ask for a comment saying "Thanks!", all I ask is that you seed to help others enjoy the film!





SCREENSHOTS: 
http://image.bayimg.com/fd04bb2e99e3bb3338f1f9284afdfe7f9ef99ee0.jpg 
http://image.bayimg.com/39dd1c968b3162e1bdbcbd5e54302159621299b9.jpg 
http://image.bayimg.com/2bfde5a2ffc266442db818139b553cab1ce234e8.jpg 
http://image.bayimg.com/f5d73919d0742a25cc4093c7b61e263ca22fad09.jpg 
http://image.bayimg.com/d719a37f5163d631feb22e8ca9171c080e635468.jpg 
http://image.bayimg.com/54715ea64380f54f83023c8e775c6b9e9dc82974.jpg 
http://image.bayimg.com/ff5b33c50af970311990d9cf712b6c67bb21fb78.jpg 
http://image.bayimg.com/a45bf23a9cbec42fa757be785a28ef64c30b18fe.jpg





General
Format                         : MPEG-4
Format profile                 : Base Media / Version 2
Codec ID                       : mp42
File size                      : 857 MiB
Duration                       : 2h 1mn
Overall bit rate mode          : Variable
Overall bit rate               : 990 Kbps

Video
ID                             : 1
Format                         : AVC
Format/Info                    : Advanced Video Codec
Format profile                 : High@L3.1
Format settings, CABAC         : Yes
Format settings, ReFrames      : 6 frames
Codec ID                       : avc1
Codec ID/Info                  : Advanced Video Coding
Duration                       : 2h 1mn
Bit rate mode                  : Variable
Bit rate                       : 825 Kbps
Width                          : 1 280 pixels
Height                         : 544 pixels
Display aspect ratio           : 2.35:1
Frame rate mode                : Variable
Frame rate                     : 23.976 fps
Minimum frame rate             : 23.810 fps
Maximum frame rate             : 24.390 fps
Color space                    : YUV
Chroma subsampling             : 4:2:0
Bit depth                      : 8 bits
Scan type                      : Progressive
Bits/(Pixel*Frame)             : 0.049
Stream size                    : 714 MiB (83%)
Writing library                : x264 core 120

Audio
ID                             : 2
Format                         : AAC
Format/Info                    : Advanced Audio Codec
Format profile                 : LC
Codec ID                       : 40
Duration                       : 2h 1mn
Bit rate mode                  : Variable
Bit rate                       : 160 Kbps
Maximum bit rate               : 190 Kbps
Channel(s)                     : 2 channels
Channel positions              : Front: L R
Sampling rate                  : 48.0 KHz
Compression mode               : Lossy
Stream size                    : 138 MiB (16%)
Language                       : English





Please seed to keep this alive! Enjoy the film!